<svg width="27" height="27" viewBox="0 0 27 27" fill="none" xmlns="http://www.w3.org/2000/svg">
<path fill-rule="evenodd" clip-rule="evenodd" d="M24.0833 26.25C24.0833 26.25 26.25 26.25 26.25 24.0833C26.25 21.9167 24.0833 15.4167 13.25 15.4167C2.41667 15.4167 0.25 21.9167 0.25 24.0833C0.25 26.25 2.41667 26.25 2.41667 26.25H24.0833ZM2.4275 24.2047V24.2003V24.2047ZM2.46433 24.0833H24.0357C24.0458 24.0822 24.0559 24.0807 24.066 24.079L24.0833 24.0747C24.0812 23.5417 23.7497 21.9383 22.2807 20.4693C20.868 19.0567 18.2095 17.5833 13.25 17.5833C8.28833 17.5833 5.632 19.0567 4.21933 20.4693C2.75033 21.9383 2.421 23.5417 2.41667 24.0747C2.43252 24.0777 2.44841 24.0806 2.46433 24.0833V24.0833ZM24.0747 24.2047V24.2003V24.2047ZM13.25 11.0833C14.3993 11.0833 15.5015 10.6268 16.3141 9.81413C17.1268 9.00147 17.5833 7.89927 17.5833 6.75C17.5833 5.60073 17.1268 4.49853 16.3141 3.68587C15.5015 2.87321 14.3993 2.41667 13.25 2.41667C12.1007 2.41667 10.9985 2.87321 10.1859 3.68587C9.37321 4.49853 8.91667 5.60073 8.91667 6.75C8.91667 7.89927 9.37321 9.00147 10.1859 9.81413C10.9985 10.6268 12.1007 11.0833 13.25 11.0833V11.0833ZM19.75 6.75C19.75 8.47391 19.0652 10.1272 17.8462 11.3462C16.6272 12.5652 14.9739 13.25 13.25 13.25C11.5261 13.25 9.87279 12.5652 8.65381 11.3462C7.43482 10.1272 6.75 8.47391 6.75 6.75C6.75 5.02609 7.43482 3.37279 8.65381 2.15381C9.87279 0.93482 11.5261 0.25 13.25 0.25C14.9739 0.25 16.6272 0.93482 17.8462 2.15381C19.0652 3.37279 19.75 5.02609 19.75 6.75V6.75Z" fill="#D50F27"/>
</svg>
